<mxfile host="app.diagrams.net" modified="2022-11-25T04:54:31.981Z" agent="5.0 (Macintosh; Intel Mac OS X 10_15_7) AppleWebKit/537.36 (KHTML, like Gecko) Chrome/107.0.0.0 Safari/537.36" version="20.6.0" etag="zehy-08HVEpPvtyPTyFp" type="github">
  <diagram id="W3gosLc9l-HY5uNlvlV2" name="第 1 页">
    <mxGraphModel dx="1426" dy="769" grid="1" gridSize="10" guides="1" tooltips="1" connect="1" arrows="1" fold="1" page="1" pageScale="1" pageWidth="827" pageHeight="1169" math="0" shadow="0">
      <root>
        <mxCell id="0" />
        <mxCell id="1" parent="0" />
        <mxCell id="oHjlamjH8M_cLfW_BMTL-1" value="PyTorch 模型" style="rounded=0;whiteSpace=wrap;html=1;fillColor=#dae8fc;strokeColor=#6c8ebf;" vertex="1" parent="1">
          <mxGeometry x="80" y="40" width="65" height="30" as="geometry" />
        </mxCell>
        <mxCell id="oHjlamjH8M_cLfW_BMTL-2" value="Tensorflow 模型" style="rounded=0;whiteSpace=wrap;html=1;fillColor=#dae8fc;strokeColor=#6c8ebf;" vertex="1" parent="1">
          <mxGeometry x="155" y="40" width="60" height="30" as="geometry" />
        </mxCell>
        <mxCell id="oHjlamjH8M_cLfW_BMTL-4" value="x86" style="rounded=0;whiteSpace=wrap;html=1;" vertex="1" parent="1">
          <mxGeometry x="30" y="120" width="70" height="30" as="geometry" />
        </mxCell>
        <mxCell id="oHjlamjH8M_cLfW_BMTL-5" value="arm" style="rounded=0;whiteSpace=wrap;html=1;" vertex="1" parent="1">
          <mxGeometry x="110" y="120" width="70" height="30" as="geometry" />
        </mxCell>
        <mxCell id="oHjlamjH8M_cLfW_BMTL-6" value="RISK-V" style="rounded=0;whiteSpace=wrap;html=1;" vertex="1" parent="1">
          <mxGeometry x="190" y="120" width="70" height="30" as="geometry" />
        </mxCell>
        <mxCell id="oHjlamjH8M_cLfW_BMTL-8" value="..." style="text;html=1;strokeColor=none;fillColor=none;align=center;verticalAlign=middle;whiteSpace=wrap;rounded=0;fontStyle=1;fontSize=24;labelPosition=center;verticalLabelPosition=middle;labelBackgroundColor=none;" vertex="1" parent="1">
          <mxGeometry x="230" y="40" width="60" height="30" as="geometry" />
        </mxCell>
        <mxCell id="oHjlamjH8M_cLfW_BMTL-9" value="..." style="text;html=1;strokeColor=none;fillColor=none;align=center;verticalAlign=middle;whiteSpace=wrap;rounded=0;fontStyle=1;fontSize=24;labelPosition=center;verticalLabelPosition=middle;labelBackgroundColor=none;" vertex="1" parent="1">
          <mxGeometry x="270" y="120" width="60" height="30" as="geometry" />
        </mxCell>
      </root>
    </mxGraphModel>
  </diagram>
</mxfile>
